M48
;DRILL file {KiCad (2015-06-14 BZR 5747, Git dc9ebf3)-product} date 6/25/2015 00:27:07
;FORMAT={2:4/ absolute / inch / suppress leading zeros}
FMAT,2
INCH,TZ
T1C0.020
T2C0.028
T3C0.040
T4C0.091
%
G90
G05
M72
T1
X28000Y-41500
X28500Y-40000
X31000Y-30000
X32000Y-41000
T2
X39450Y-30417
X39450Y-32583
T3
X23400Y-26000
X24400Y-26000
X25400Y-26000
X26400Y-26000
X27000Y-45000
X27400Y-26000
X28000Y-45000
X28400Y-26000
X29000Y-45000
X29400Y-26000
X30000Y-45000
X30400Y-26000
X31000Y-45000
X31400Y-26000
X32000Y-45000
X32400Y-26000
X33000Y-45000
X34000Y-26000
X34000Y-45000
X35000Y-26000
X36000Y-26000
X36000Y-45000
X37000Y-26000
X37000Y-45000
X38000Y-26000
X38000Y-45000
X39000Y-26000
X39000Y-45000
X40000Y-26000
X40000Y-45000
X41000Y-26000
X41000Y-45000
T4
X38940Y-36913
X38940Y-42087
T0
M30
