G04 #@! TF.FileFunction,Soldermask,Top*
%FSLAX45Y45*%
G04 Gerber Fmt 4.5, Leading zero omitted, Abs format (unit mm)*
G04 Created by KiCad (PCBNEW (2015-06-14 BZR 5747, Git dc9ebf3)-product) date 6/25/2015 00:27:05*
%MOMM*%
G01*
G04 APERTURE LIST*
%ADD10C,0.254000*%
%ADD11C,0.100000*%
%ADD12R,1.727200X2.032000*%
%ADD13O,1.727200X2.032000*%
%ADD14R,1.597660X1.800860*%
%ADD15R,3.000000X0.700000*%
%ADD16R,6.040000X3.400000*%
%ADD17C,0.700000*%
%ADD18R,2.000000X1.700000*%
%ADD19R,2.000000X1.600000*%
%ADD20R,1.700000X2.000000*%
%ADD21R,1.550000X1.300000*%
%ADD22R,2.800000X1.000000*%
%ADD23C,2.300000*%
G04 APERTURE END LIST*
D10*
D11*
G36*
X6760113Y-9460177D02*
X6755852Y-9469733D01*
X6751590Y-9479289D01*
X6603663Y-9613402D01*
X6455736Y-9747515D01*
X6446657Y-9751084D01*
X6437577Y-9754654D01*
X6225646Y-9754621D01*
X6013715Y-9754587D01*
X6005112Y-9751245D01*
X6002239Y-9750108D01*
X5999670Y-9749050D01*
X5997585Y-9748151D01*
X5996166Y-9747486D01*
X5995634Y-9747180D01*
X5995180Y-9746779D01*
X5993962Y-9745700D01*
X5992008Y-9743966D01*
X5989345Y-9741601D01*
X5986001Y-9738630D01*
X5982004Y-9735078D01*
X5977379Y-9730969D01*
X5972156Y-9726326D01*
X5966361Y-9721175D01*
X5960022Y-9715539D01*
X5953166Y-9709444D01*
X5945820Y-9702913D01*
X5938012Y-9695970D01*
X5929770Y-9688641D01*
X5921120Y-9680949D01*
X5912089Y-9672919D01*
X5902707Y-9664575D01*
X5892999Y-9655942D01*
X5882993Y-9647043D01*
X5872716Y-9637903D01*
X5862197Y-9628547D01*
X5851462Y-9618999D01*
X5844693Y-9612979D01*
X5694627Y-9479501D01*
X5690261Y-9469843D01*
X5685896Y-9460185D01*
X5685922Y-9269946D01*
X5685947Y-9079706D01*
X5690287Y-9070128D01*
X5694627Y-9060550D01*
X5845517Y-8927315D01*
X5996406Y-8794080D01*
X6005290Y-8790711D01*
X6014173Y-8787342D01*
X6062627Y-8787360D01*
X6111081Y-8787378D01*
X6122444Y-8793875D01*
X6133807Y-8800373D01*
X6153225Y-8832883D01*
X6172643Y-8865394D01*
X6174538Y-8872116D01*
X6176433Y-8878838D01*
X6176426Y-8967895D01*
X6176418Y-9056952D01*
X6174373Y-9063831D01*
X6172329Y-9070710D01*
X6073406Y-9227873D01*
X6065957Y-9239707D01*
X6058647Y-9251321D01*
X6051495Y-9262683D01*
X6044523Y-9273760D01*
X6037750Y-9284520D01*
X6031197Y-9294930D01*
X6024885Y-9304957D01*
X6018835Y-9314569D01*
X6013066Y-9323733D01*
X6007600Y-9332417D01*
X6002457Y-9340588D01*
X5997657Y-9348213D01*
X5993221Y-9355259D01*
X5989170Y-9361695D01*
X5985523Y-9367487D01*
X5982303Y-9372603D01*
X5979528Y-9377010D01*
X5977220Y-9380676D01*
X5975399Y-9383568D01*
X5974086Y-9385654D01*
X5973300Y-9386900D01*
X5973073Y-9387261D01*
X5971662Y-9389487D01*
X6032037Y-9446660D01*
X6092411Y-9503833D01*
X6225912Y-9503833D01*
X6359414Y-9503833D01*
X6417281Y-9449008D01*
X6423928Y-9442709D01*
X6430390Y-9436586D01*
X6436622Y-9430679D01*
X6442581Y-9425031D01*
X6448221Y-9419683D01*
X6453499Y-9414678D01*
X6458371Y-9410057D01*
X6462792Y-9405863D01*
X6466718Y-9402137D01*
X6470105Y-9398921D01*
X6472910Y-9396257D01*
X6475087Y-9394187D01*
X6476592Y-9392752D01*
X6477383Y-9391995D01*
X6477450Y-9391930D01*
X6479752Y-9389678D01*
X6376760Y-9230238D01*
X6273768Y-9070799D01*
X6271667Y-9063777D01*
X6269567Y-9056756D01*
X6269567Y-8967860D01*
X6269567Y-8878965D01*
X6271856Y-8871599D01*
X6274145Y-8864232D01*
X6295782Y-8832564D01*
X6299348Y-8827350D01*
X6302759Y-8822371D01*
X6305967Y-8817699D01*
X6308921Y-8813407D01*
X6311571Y-8809567D01*
X6313868Y-8806251D01*
X6315761Y-8803531D01*
X6317200Y-8801480D01*
X6318135Y-8800170D01*
X6318496Y-8799694D01*
X6319268Y-8799104D01*
X6320830Y-8798118D01*
X6323030Y-8796826D01*
X6325718Y-8795315D01*
X6328741Y-8793674D01*
X6330156Y-8792923D01*
X6340740Y-8787352D01*
X6389158Y-8787351D01*
X6437577Y-8787350D01*
X6446678Y-8790918D01*
X6455780Y-8794485D01*
X6603576Y-8927506D01*
X6751373Y-9060527D01*
X6755721Y-9070116D01*
X6760069Y-9079706D01*
X6760091Y-9269942D01*
X6760113Y-9460177D01*
X6760113Y-9460177D01*
X6760113Y-9460177D01*
G37*
X6760113Y-9460177D02*
X6755852Y-9469733D01*
X6751590Y-9479289D01*
X6603663Y-9613402D01*
X6455736Y-9747515D01*
X6446657Y-9751084D01*
X6437577Y-9754654D01*
X6225646Y-9754621D01*
X6013715Y-9754587D01*
X6005112Y-9751245D01*
X6002239Y-9750108D01*
X5999670Y-9749050D01*
X5997585Y-9748151D01*
X5996166Y-9747486D01*
X5995634Y-9747180D01*
X5995180Y-9746779D01*
X5993962Y-9745700D01*
X5992008Y-9743966D01*
X5989345Y-9741601D01*
X5986001Y-9738630D01*
X5982004Y-9735078D01*
X5977379Y-9730969D01*
X5972156Y-9726326D01*
X5966361Y-9721175D01*
X5960022Y-9715539D01*
X5953166Y-9709444D01*
X5945820Y-9702913D01*
X5938012Y-9695970D01*
X5929770Y-9688641D01*
X5921120Y-9680949D01*
X5912089Y-9672919D01*
X5902707Y-9664575D01*
X5892999Y-9655942D01*
X5882993Y-9647043D01*
X5872716Y-9637903D01*
X5862197Y-9628547D01*
X5851462Y-9618999D01*
X5844693Y-9612979D01*
X5694627Y-9479501D01*
X5690261Y-9469843D01*
X5685896Y-9460185D01*
X5685922Y-9269946D01*
X5685947Y-9079706D01*
X5690287Y-9070128D01*
X5694627Y-9060550D01*
X5845517Y-8927315D01*
X5996406Y-8794080D01*
X6005290Y-8790711D01*
X6014173Y-8787342D01*
X6062627Y-8787360D01*
X6111081Y-8787378D01*
X6122444Y-8793875D01*
X6133807Y-8800373D01*
X6153225Y-8832883D01*
X6172643Y-8865394D01*
X6174538Y-8872116D01*
X6176433Y-8878838D01*
X6176426Y-8967895D01*
X6176418Y-9056952D01*
X6174373Y-9063831D01*
X6172329Y-9070710D01*
X6073406Y-9227873D01*
X6065957Y-9239707D01*
X6058647Y-9251321D01*
X6051495Y-9262683D01*
X6044523Y-9273760D01*
X6037750Y-9284520D01*
X6031197Y-9294930D01*
X6024885Y-9304957D01*
X6018835Y-9314569D01*
X6013066Y-9323733D01*
X6007600Y-9332417D01*
X6002457Y-9340588D01*
X5997657Y-9348213D01*
X5993221Y-9355259D01*
X5989170Y-9361695D01*
X5985523Y-9367487D01*
X5982303Y-9372603D01*
X5979528Y-9377010D01*
X5977220Y-9380676D01*
X5975399Y-9383568D01*
X5974086Y-9385654D01*
X5973300Y-9386900D01*
X5973073Y-9387261D01*
X5971662Y-9389487D01*
X6032037Y-9446660D01*
X6092411Y-9503833D01*
X6225912Y-9503833D01*
X6359414Y-9503833D01*
X6417281Y-9449008D01*
X6423928Y-9442709D01*
X6430390Y-9436586D01*
X6436622Y-9430679D01*
X6442581Y-9425031D01*
X6448221Y-9419683D01*
X6453499Y-9414678D01*
X6458371Y-9410057D01*
X6462792Y-9405863D01*
X6466718Y-9402137D01*
X6470105Y-9398921D01*
X6472910Y-9396257D01*
X6475087Y-9394187D01*
X6476592Y-9392752D01*
X6477383Y-9391995D01*
X6477450Y-9391930D01*
X6479752Y-9389678D01*
X6376760Y-9230238D01*
X6273768Y-9070799D01*
X6271667Y-9063777D01*
X6269567Y-9056756D01*
X6269567Y-8967860D01*
X6269567Y-8878965D01*
X6271856Y-8871599D01*
X6274145Y-8864232D01*
X6295782Y-8832564D01*
X6299348Y-8827350D01*
X6302759Y-8822371D01*
X6305967Y-8817699D01*
X6308921Y-8813407D01*
X6311571Y-8809567D01*
X6313868Y-8806251D01*
X6315761Y-8803531D01*
X6317200Y-8801480D01*
X6318135Y-8800170D01*
X6318496Y-8799694D01*
X6319268Y-8799104D01*
X6320830Y-8798118D01*
X6323030Y-8796826D01*
X6325718Y-8795315D01*
X6328741Y-8793674D01*
X6330156Y-8792923D01*
X6340740Y-8787352D01*
X6389158Y-8787351D01*
X6437577Y-8787350D01*
X6446678Y-8790918D01*
X6455780Y-8794485D01*
X6603576Y-8927506D01*
X6751373Y-9060527D01*
X6755721Y-9070116D01*
X6760069Y-9079706D01*
X6760091Y-9269942D01*
X6760113Y-9460177D01*
X6760113Y-9460177D01*
D12*
X9144000Y-11430000D03*
D13*
X9398000Y-11430000D03*
X9652000Y-11430000D03*
X9906000Y-11430000D03*
X10160000Y-11430000D03*
X10414000Y-11430000D03*
D14*
X6555486Y-7620000D03*
X6271514Y-7620000D03*
X6555486Y-8128000D03*
X6271514Y-8128000D03*
D15*
X9320300Y-7814000D03*
X9320300Y-8063000D03*
X9320300Y-8188000D03*
X9320300Y-7939000D03*
D16*
X9962300Y-7322000D03*
X9962300Y-8680000D03*
D17*
X10020300Y-7726000D03*
X10020300Y-8276000D03*
D12*
X5943600Y-6604000D03*
D13*
X6197600Y-6604000D03*
X6451600Y-6604000D03*
X6705600Y-6604000D03*
X6959600Y-6604000D03*
X7213600Y-6604000D03*
X7467600Y-6604000D03*
X7721600Y-6604000D03*
X7975600Y-6604000D03*
X8229600Y-6604000D03*
D12*
X6858000Y-11430000D03*
D13*
X7112000Y-11430000D03*
X7366000Y-11430000D03*
X7620000Y-11430000D03*
X7874000Y-11430000D03*
X8128000Y-11430000D03*
X8382000Y-11430000D03*
X8636000Y-11430000D03*
D12*
X8636000Y-6604000D03*
D13*
X8890000Y-6604000D03*
X9144000Y-6604000D03*
X9398000Y-6604000D03*
X9652000Y-6604000D03*
X9906000Y-6604000D03*
X10160000Y-6604000D03*
X10414000Y-6604000D03*
D18*
X8436000Y-9906000D03*
X8836000Y-9906000D03*
X8436000Y-10160000D03*
X8836000Y-10160000D03*
D19*
X7502500Y-7620000D03*
X7102500Y-7620000D03*
X7502500Y-8128000D03*
X7102500Y-8128000D03*
D20*
X6096000Y-10468000D03*
X6096000Y-10868000D03*
D21*
X4682500Y-10443000D03*
X5477500Y-10443000D03*
X4682500Y-10893000D03*
X5477500Y-10893000D03*
D22*
X9500760Y-10383000D03*
X9500760Y-10133000D03*
X9500760Y-9933000D03*
X9500760Y-9683000D03*
D23*
X9890760Y-10690000D03*
X9890760Y-9376000D03*
M02*
